<svg width="18" height="17" viewBox="0 0 18 17" fill="none" xmlns="http://www.w3.org/2000/svg">
<path d="M9 13.05C10.125 13.05 11.0814 12.6564 11.8692 11.8692C12.6564 11.0814 13.05 10.125 13.05 9C13.05 7.875 12.6564 6.9186 11.8692 6.1308C11.0814 5.3436 10.125 4.95 9 4.95C7.875 4.95 6.9186 5.3436 6.1308 6.1308C5.3436 6.9186 4.95 7.875 4.95 9C4.95 10.125 5.3436 11.0814 6.1308 11.8692C6.9186 12.6564 7.875 13.05 9 13.05ZM9 11.25C8.37 11.25 7.8375 11.0325 7.4025 10.5975C6.9675 10.1625 6.75 9.63 6.75 9C6.75 8.37 6.9675 7.8375 7.4025 7.4025C7.8375 6.9675 8.37 6.75 9 6.75C9.63 6.75 10.1625 6.9675 10.5975 7.4025C11.0325 7.8375 11.25 8.37 11.25 9C11.25 9.63 11.0325 10.1625 10.5975 10.5975C10.1625 11.0325 9.63 11.25 9 11.25ZM1.8 16.2C1.305 16.2 0.8814 16.0239 0.5292 15.6717C0.1764 15.3189 0 14.895 0 14.4V3.6C0 3.105 0.1764 2.6814 0.5292 2.3292C0.8814 1.9764 1.305 1.8 1.8 1.8H4.635L6.3 0H11.7L13.365 1.8H16.2C16.695 1.8 17.1189 1.9764 17.4717 2.3292C17.8239 2.6814 18 3.105 18 3.6V14.4C18 14.895 17.8239 15.3189 17.4717 15.6717C17.1189 16.0239 16.695 16.2 16.2 16.2H1.8ZM16.2 14.4V3.6H12.555L10.9125 1.8H7.0875L5.445 3.6H1.8V14.4H16.2Z" fill="#BDBDBD"/>
</svg>
