<svg width="12" height="15" viewBox="0 0 12 15" fill="none" xmlns="http://www.w3.org/2000/svg">
<path d="M1.5 14.0624C1.0875 14.0624 0.7345 13.9157 0.441 13.6222C0.147 13.3282 0 12.9749 0 12.5624V5.81244C0 5.57494 0.0532499 5.34994 0.15975 5.13744C0.26575 4.92494 0.4125 4.74994 0.6 4.61244L5.1 1.23744C5.2375 1.13744 5.38125 1.06244 5.53125 1.01244C5.68125 0.962439 5.8375 0.937439 6 0.937439C6.1625 0.937439 6.31875 0.962439 6.46875 1.01244C6.61875 1.06244 6.7625 1.13744 6.9 1.23744L11.4 4.61244C11.5875 4.74994 11.7345 4.92494 11.841 5.13744C11.947 5.34994 12 5.57494 12 5.81244V12.5624C12 12.9749 11.8533 13.3282 11.5597 13.6222C11.2657 13.9157 10.9125 14.0624 10.5 14.0624H7.5V8.81244H4.5V14.0624H1.5Z" fill="#962E40"/>
</svg>
