<svg width="12" height="15" viewBox="0 0 12 15" fill="none" xmlns="http://www.w3.org/2000/svg">
<path d="M4.7364 0.30836L11.6364 1.65836C11.7388 1.67839 11.8311 1.7334 11.8974 1.81395C11.9637 1.89451 12 1.99561 12 2.09996V12.9C12 13.0043 11.9637 13.1054 11.8974 13.186C11.8311 13.2665 11.7388 13.3215 11.6364 13.3416L4.7364 14.6916C4.67122 14.7043 4.60402 14.7025 4.53964 14.6862C4.47525 14.6699 4.41526 14.6396 4.36399 14.5973C4.31271 14.5551 4.27141 14.5021 4.24306 14.442C4.21471 14.382 4.2 14.3164 4.2 14.25V0.74996C4.2 0.683543 4.21471 0.617951 4.24306 0.55789C4.27141 0.497828 4.31271 0.444788 4.36399 0.402574C4.41526 0.360361 4.47525 0.330021 4.53964 0.313732C4.60402 0.297442 4.67122 0.295608 4.7364 0.30836ZM6.6 6.89996C6.44087 6.89996 6.28826 6.96317 6.17574 7.0757C6.06321 7.18822 6 7.34083 6 7.49996C6 7.65909 6.06321 7.8117 6.17574 7.92422C6.28826 8.03675 6.44087 8.09996 6.6 8.09996C6.75913 8.09996 6.91174 8.03675 7.02426 7.92422C7.13679 7.8117 7.2 7.65909 7.2 7.49996C7.2 7.34083 7.13679 7.18822 7.02426 7.0757C6.91174 6.96317 6.75913 6.89996 6.6 6.89996ZM3.6 1.79996V13.2H0.45C0.341257 13.2 0.236195 13.1606 0.154242 13.0891C0.0722886 13.0176 0.018989 12.9189 0.00419998 12.8112L0 12.75V2.24996C4.58574e-06 2.14122 0.0393857 2.03615 0.11086 1.9542C0.182335 1.87225 0.281068 1.81895 0.3888 1.80416L0.45 1.79996H3.6Z" fill="#BDBDBD"/>
</svg>
