<svg width="14" height="11" viewBox="0 0 14 11" fill="none" xmlns="http://www.w3.org/2000/svg">
<path d="M7 6.08696C7.84061 6.08696 8.60148 5.74609 9.15235 5.19522C9.70261 4.64496 10.0435 3.88409 10.0435 3.04348C10.0435 2.20287 9.70261 1.442 9.15235 0.891739C8.60148 0.34087 7.84061 0 7 0C6.15939 0 5.39852 0.34087 4.84765 0.891739C4.29739 1.442 3.95652 2.20287 3.95652 3.04348C3.95652 3.88409 4.29739 4.64496 4.84765 5.19522C5.12997 5.47833 5.46546 5.70285 5.83483 5.85589C6.2042 6.00892 6.60018 6.08745 7 6.08696ZM11.8696 6.69565C12.0695 6.69605 12.2676 6.65697 12.4524 6.58063C12.6372 6.5043 12.8051 6.39223 12.9465 6.25084C13.0879 6.10945 13.2 5.94154 13.2763 5.75673C13.3526 5.57192 13.3917 5.37386 13.3913 5.17391C13.3913 4.75391 13.2215 4.37348 12.9457 4.09774C12.8046 3.95623 12.6368 3.84401 12.4521 3.76754C12.2674 3.69108 12.0695 3.65187 11.8696 3.65217C11.6696 3.65177 11.4716 3.69086 11.2867 3.76719C11.1019 3.84352 10.934 3.9556 10.7926 4.09699C10.6513 4.23837 10.5392 4.40629 10.4628 4.59109C10.3865 4.7759 10.3474 4.97396 10.3478 5.17391C10.3475 5.37384 10.3866 5.57187 10.463 5.75664C10.5394 5.94141 10.6514 6.10929 10.7928 6.25066C10.9342 6.39203 11.1021 6.50411 11.2868 6.58047C11.4716 6.65683 11.6696 6.69597 11.8696 6.69565ZM11.8696 7.05478C11.0594 7.05478 10.4501 7.30191 10.094 7.644C9.4153 7.08583 8.34217 6.69565 7 6.69565C5.6207 6.69565 4.56826 7.09009 3.90052 7.64765C3.53774 7.30374 2.92174 7.05478 2.13043 7.05478C0.798609 7.05478 0 7.71826 0 8.38296C0 8.71469 0.798609 9.04765 2.13043 9.04765C2.49809 9.04765 2.828 9.01661 3.11835 8.9667L3.094 9.13104C3.094 9.73974 4.55852 10.3484 7 10.3484C9.28991 10.3484 10.906 9.73974 10.906 9.13104L10.8938 8.97583C11.1757 9.02026 11.4995 9.04765 11.8696 9.04765C13.118 9.04765 14 8.71469 14 8.38296C14 7.71826 13.1643 7.05478 11.8696 7.05478ZM2.13043 6.69565C2.55043 6.69565 2.93087 6.52583 3.20661 6.25009C3.34812 6.10891 3.46034 5.94116 3.5368 5.75647C3.61327 5.57178 3.65248 5.3738 3.65217 5.17391C3.65257 4.97396 3.61349 4.7759 3.53716 4.59109C3.46082 4.40629 3.34875 4.23837 3.20736 4.09699C3.06597 3.9556 2.89806 3.84352 2.71325 3.76719C2.52845 3.69086 2.33038 3.65177 2.13043 3.65217C1.93051 3.65185 1.73248 3.69099 1.54771 3.76736C1.36294 3.84372 1.19506 3.9558 1.05369 4.09717C0.912317 4.23854 0.800239 4.40642 0.723878 4.59119C0.647517 4.77596 0.608375 4.97399 0.608696 5.17391C0.608295 5.37386 0.647382 5.57192 0.723714 5.75673C0.800047 5.94154 0.912122 6.10945 1.05351 6.25084C1.19489 6.39223 1.36281 6.5043 1.54762 6.58063C1.73242 6.65697 1.93048 6.69605 2.13043 6.69565Z" fill="#962E40"/>
</svg>
